<?xml version="1.0" standalone="no"?>
<!DOCTYPE svg PUBLIC "-//W3C//DTD SVG 20010904//EN"
 "http://www.w3.org/TR/2001/REC-SVG-20010904/DTD/svg10.dtd">
<svg version="1.0" xmlns="http://www.w3.org/2000/svg"
 width="512.000000pt" height="512.000000pt" viewBox="0 0 512.000000 512.000000"
 preserveAspectRatio="xMidYMid meet">
<metadata>
Created by potrace 1.14, written by Peter Selinger 2001-2017
</metadata>
<g transform="translate(0.000000,512.000000) scale(0.100000,-0.100000)"
fill="#000000" stroke="none">
<path d="M2427 4429 c-238 -34 -472 -177 -613 -375 -91 -127 -130 -223 -170
-411 -45 -216 -48 -231 -59 -288 -2 -11 -8 -40 -14 -65 -5 -25 -12 -56 -15
-70 -2 -14 -11 -57 -20 -95 -8 -39 -17 -82 -19 -95 -19 -100 -32 -156 -38
-165 -4 -6 -23 -12 -41 -13 -33 -2 -197 -19 -253 -27 -16 -2 -52 -6 -80 -10
-27 -3 -72 -10 -100 -15 -27 -5 -68 -11 -90 -14 -68 -9 -244 -45 -366 -76
-288 -73 -473 -172 -528 -282 -19 -39 -21 -55 -16 -173 4 -138 7 -163 31 -265
159 -674 748 -1107 1692 -1245 59 -9 118 -18 132 -20 14 -2 57 -7 95 -10 39
-4 86 -8 105 -10 205 -23 803 -23 1000 0 19 2 67 6 105 10 66 6 90 9 175 21
279 39 548 107 775 197 89 35 311 156 387 210 183 131 336 294 425 454 14 26
34 62 43 78 34 60 89 211 109 295 29 126 31 144 37 284 4 116 3 133 -17 172
-30 62 -99 119 -214 175 -81 39 -227 90 -325 114 -26 6 -214 47 -235 50 -174
31 -328 55 -390 60 -11 1 -49 6 -85 10 -107 12 -123 14 -163 16 -20 1 -41 7
-45 13 -5 6 -14 40 -21 76 -7 36 -14 72 -16 80 -2 8 -13 60 -24 115 -11 55
-27 130 -35 166 -8 36 -17 81 -20 100 -3 20 -8 42 -10 50 -3 8 -7 25 -10 39
-5 29 -45 227 -51 251 -2 9 -10 36 -18 60 -110 319 -374 554 -697 620 -71 14
-238 18 -313 8z"/>
</g>
</svg>
